<svg xmlns="http://www.w3.org/2000/svg" width="447" height="282" viewBox="0 0 447 282">
  <defs>
    <style>
      .cls-1 {
        fill: #005383;
        fill-rule: evenodd;
      }
    </style>
  </defs>
  <path id="Shape_340_1" data-name="Shape 340 1" class="cls-1" d="M431.89,201.94H411.462a49.529,49.529,0,1,0-97.821,0H129.155a49.529,49.529,0,1,0-97.822,0H10.906S1,201.94,1,179.644v-47.07s8.681-14.91,37.146-22.3c24.407-6.333,29.717-14.864,29.717-14.864S214.588-9.872,350.17,115.233c0,0,94.1,6.813,94.1,39.637S448.3,201.94,431.89,201.94ZM191.681,70.641c-78.315,0-94.1,42.115-94.1,42.115h94.1V70.641Zm17.335,0v44.592H317.977S260.4,70.641,209.016,70.641ZM80.244,157.348A37.16,37.16,0,1,1,43.1,194.508,37.153,37.153,0,0,1,80.244,157.348Zm282.307,0a37.16,37.16,0,1,1-37.145,37.16A37.153,37.153,0,0,1,362.551,157.348Z"/>
</svg>
