<svg xmlns="http://www.w3.org/2000/svg" width="500" height="500" viewBox="0 0 500 500">
  <defs>
    <style>
      .cls-1 {
        fill: #005383;
      }

      .cls-1, .cls-2 {
        fill-rule: evenodd;
      }

      .cls-2 {
        fill: #fff;
      }
    </style>
  </defs>
  <path id="Locatoe_1" data-name="Locatoe 1" class="cls-1" d="M349.33,363.594c-8.939,13.731-20.771,31.384-33.542,49.018-30.988,42.79-66.709,86.209-66.709,86.209s-33.976-41.011-64.233-82.79c-20.629-28.485-39.319-57.5-47.714-70.781-53.62-74.32-68.038-146.632-66.719-178.426,1.835-44.221,16-77.609,27.3-94.149C139.8,11.049,213.147,1.283,246.6.825c57.288-.783,122.629,24.157,158.814,76.805C470.019,171.631,390.244,305.976,349.33,363.594Z"/>
  <path id="Shape_340_1" data-name="Shape 340 1" class="cls-2" d="M372.481,216.915H360.512a29.022,29.022,0,1,0-57.318,0H195.1a29.021,29.021,0,1,0-57.318,0H125.808s-5.8,0-5.8-13.05V176.313s5.086-8.727,21.765-13.05c14.3-3.707,17.412-8.7,17.412-8.7s85.973-61.628,165.417,11.6c0,0,55.138,3.988,55.138,23.2S382.094,216.915,372.481,216.915ZM231.732,140.062c-45.888,0-55.139,24.651-55.139,24.651h55.139V140.062Zm10.157,0v26.1h63.845S272,140.062,241.889,140.062Zm-75.453,50.752a21.751,21.751,0,1,1-21.765,21.751A21.758,21.758,0,0,1,166.436,190.814Zm165.417,0a21.751,21.751,0,1,1-21.766,21.751A21.758,21.758,0,0,1,331.853,190.814Z"/>
</svg>
