<?xml version="1.0" standalone="no"?>
<!DOCTYPE svg PUBLIC "-//W3C//DTD SVG 20010904//EN"
 "http://www.w3.org/TR/2001/REC-SVG-20010904/DTD/svg10.dtd">
<svg version="1.0" xmlns="http://www.w3.org/2000/svg"
 width="225.000000pt" height="225.000000pt" viewBox="0 0 225.000000 225.000000"
 preserveAspectRatio="xMidYMid meet">
<metadata>
Created by potrace 1.16, written by Peter Selinger 2001-2019
</metadata>
<g transform="translate(0.000000,225.000000) scale(0.100000,-0.100000)"
fill="#000000" stroke="none">
<path d="M745 1841 c-81 -20 -93 -37 -245 -328 l-125 -241 -68 -4 c-60 -3 -71
-7 -100 -36 l-32 -32 -3 -235 c-3 -197 -1 -239 13 -264 20 -39 62 -61 120 -61
l45 0 0 -94 c0 -137 4 -141 155 -141 116 0 117 0 141 28 21 25 24 37 24 118
l0 89 445 0 445 0 0 -85 c0 -138 19 -155 167 -155 87 0 135 15 147 45 3 9 6
57 6 106 l0 89 55 0 c31 0 69 7 86 16 53 27 59 59 59 296 0 183 -3 218 -18
248 -22 44 -72 70 -137 70 l-50 1 -125 241 c-69 133 -136 254 -149 270 -52 63
-50 63 -456 65 -203 1 -383 -2 -400 -6z m749 -120 c20 -19 246 -428 246 -446
0 -3 -277 -5 -615 -5 -338 0 -615 3 -615 7 0 7 102 203 184 352 38 70 59 97
81 107 23 11 102 13 362 11 l331 -2 26 -24z"/>
</g>
</svg>
