<svg xmlns="http://www.w3.org/2000/svg" xmlns:xlink="http://www.w3.org/1999/xlink" width="32" height="32" viewBox="0 0 32 32">
  <defs>
    <style>
      .cls-1 {
        fill: #005383;
        fill-rule: evenodd;
        filter: url(#filter);
      }
    </style>
    <filter id="filter" x="7" y="7" width="18" height="18" filterUnits="userSpaceOnUse">
      <feFlood result="flood" flood-color="#005383"/>
      <feComposite result="composite" operator="in" in2="SourceGraphic"/>
      <feBlend result="blend" in2="SourceGraphic"/>
    </filter>
  </defs>
  <path id="Shape_332_1" data-name="Shape 332 1" class="cls-1" d="M23,25H18V23h3V21h2V18h2v7H23Zm-4-6h2v2H19V19Zm-2-2h2v2H17V17Zm-4,2V17h2v2H13Zm-2,2V19h2v2H11Zm3,2v2H7V18H9v3h2v2h3Zm1-8h2v2H15V15Zm-2-2h2v2H13V13Zm-2-2h2v2H11V11ZM9,14H7V7h7V9H11v2H9v3Zm10-1v2H17V13h2Zm2-2v2H19V11h2ZM18,9V7h7v7H23V11H21V9H18Z"/>
</svg>
