<svg id="icon" xmlns="http://www.w3.org/2000/svg" width="22" height="23" viewBox="0 0 22 23">
  <defs>
    <style>
      .cls-1, .cls-2 {
        fill: #005383;
        fill-rule: evenodd;
      }

      .cls-1 {
        opacity: 0.51;
      }
    </style>
  </defs>
  <path id="Shape_7_copy" data-name="Shape 7 copy" class="cls-1" d="M23.516,239.764l-3.929,2.114,1.572,3.7,7.858,2.642s6.855-.24,7.859-1.057,4.715-3.7,4.715-3.7l-1.572-2.642Z" transform="translate(-19.594 -225.219)"/>
  <path id="Locatoe_3_copy" data-name="Locatoe 3 copy" class="cls-2" d="M34.063,239.174c-0.323.529-.751,1.208-1.213,1.886-1.12,1.646-2.412,3.317-2.412,3.317s-1.228-1.578-2.322-3.185c-0.746-1.1-1.422-2.213-1.725-2.724a12.846,12.846,0,0,1-2.412-6.864,7.556,7.556,0,0,1,.987-3.622,6.47,6.47,0,0,1,5.383-2.764,6.79,6.79,0,0,1,5.742,2.955C38.427,231.789,35.543,236.958,34.063,239.174Zm-3.58-10.524a3.1,3.1,0,1,0,2.916,3.1A3.01,3.01,0,0,0,30.483,228.65Z" transform="translate(-19.594 -225.219)"/>
</svg>
