<svg xmlns="http://www.w3.org/2000/svg" width="500" height="500" viewBox="0 0 500 500">
  <defs>
    <style>
      .cls-1 {
        fill: #005383;
      }

      .cls-1, .cls-2 {
        fill-rule: evenodd;
      }

      .cls-2 {
        fill: #fff;
      }
    </style>
  </defs>
  <path id="Locatoe_1" data-name="Locatoe 1" class="cls-1" d="M349.33,363.594c-8.939,13.731-20.771,31.384-33.542,49.018-30.988,42.79-66.709,86.209-66.709,86.209s-33.976-41.011-64.233-82.79c-20.629-28.485-39.319-57.5-47.714-70.781-53.62-74.32-68.038-146.632-66.719-178.426,1.835-44.221,16-77.609,27.3-94.149C139.8,11.049,213.147,1.283,246.6.825c57.288-.783,122.629,24.157,158.814,76.805C470.019,171.631,390.244,305.976,349.33,363.594Z"/>
  <path id="Ellipse_5_copy" data-name="Ellipse 5 copy" class="cls-2" d="M368.978,189.546V177.43h11.028v12.116H368.978Zm-6.385-12.693v12.693a5.787,5.787,0,0,0,5.8,5.769h11.029v23.656c0,11.887-8.127,10.962-8.127,10.962H359.937a23.18,23.18,0,0,0-45.945.577H293.52V161.852h85.906v9.231H368.4A5.787,5.787,0,0,0,362.593,176.853Zm-25.54-48.465a2.894,2.894,0,0,1,2.9-2.885h8.127l27.861,30.579h-38.89V128.388ZM322.542,125.5h8.707v30.579h-8.707V125.5Zm-28.442,0h23.218v30.579H294.1V125.5ZM147.78,210.124a23.12,23.12,0,0,0-23.013,20.386H120V203.97H288.3v26.54h-117.5A23.12,23.12,0,0,0,147.78,210.124ZM120,183.776H288.3V198.2H120V183.776Zm0-81.351A14.468,14.468,0,0,1,134.511,88H272.658a14.468,14.468,0,0,1,14.511,14.424v75.582H120V102.425ZM147.783,215.31a17.841,17.841,0,1,1-17.948,17.841A17.9,17.9,0,0,1,147.783,215.31Zm189.805,0a17.841,17.841,0,1,1-17.948,17.841A17.9,17.9,0,0,1,337.588,215.31Zm22.43,15.2c-0.009-.071-0.021-0.14-0.03-0.211l0.5,0.211h-0.474Zm-71.723,0h-68.06a23.182,23.182,0,0,0-46.026,0H120m168.3,0h-117.5m117.5,0H273.748a23.182,23.182,0,0,0-46.025,0H120m77.377-15.328a17.909,17.909,0,1,1-18.01,17.909A17.959,17.959,0,0,1,197.377,215.182Zm53.49,0a17.909,17.909,0,1,1-18.038,17.909A17.973,17.973,0,0,1,250.867,215.182Z"/>
</svg>
