<svg xmlns="http://www.w3.org/2000/svg" width="447" height="282" viewBox="0 0 447 282">
  <defs>
    <style>
      .cls-1 {
        fill: #005383;
        fill-rule: evenodd;
      }
    </style>
  </defs>
  <path id="Shape_338_1" data-name="Shape 338 1" class="cls-1" d="M393.3,188.692H380.447C393.975,193.625,408,205.6,408,234.077H390.348a34.63,34.63,0,1,1-64.434-.769H144.2c0.143,1.584.228,3.186,0.228,4.807H125.342a34.63,34.63,0,1,1-67.255,0H39a52.413,52.413,0,0,1,7.251-26.661L45.541,51.769S43.425,1,104.8,1H363.366s4.81,26.539-26.165,32.308c0,0,27.285,51.712,22.479,119.521a19.9,19.9,0,0,1,12.151-4.137H393.3a3.153,3.153,0,0,1,3.153,3.152v33.7A3.152,3.152,0,0,1,393.3,188.692Zm-82.268-56.923a3.847,3.847,0,0,0,3.848,3.846h10.774a3.847,3.847,0,0,0,3.848-3.846v-3.846a3.847,3.847,0,0,0-3.848-3.846H314.884a3.847,3.847,0,0,0-3.848,3.846v3.846Zm-102.35-99.23h-69.26c-17.892,0-19.238,13.846-19.238,13.846v73.846c46.173,0,46.942,33.846,46.942,33.846v52.308h41.556V32.539Zm83.112,0H220.229v95.385h45.6c11.928,0,12.89,15.385,12.89,15.385,0,17.692-13.852,19.23-13.852,19.23v43.847H291.8V32.539Zm33.09,10H306.419V95.615h37.708C343.165,72.923,324.888,42.539,324.888,42.539Zm29.736,144.12c0.339-.366.687-0.716,1.046-1.043a45.758,45.758,0,0,1,5.137-.24,20.068,20.068,0,0,1-4.913-4.626C355.5,182.712,355.082,184.68,354.624,186.658Z"/>
</svg>
