<svg xmlns="http://www.w3.org/2000/svg" width="500" height="500" viewBox="0 0 500 500">
  <defs>
    <style>
      .cls-1 {
        fill: #005383;
      }

      .cls-1, .cls-2 {
        fill-rule: evenodd;
      }

      .cls-2 {
        fill: #fff;
      }
    </style>
  </defs>
  <path id="Locatoe_1" data-name="Locatoe 1" class="cls-1" d="M349.33,363.594c-8.939,13.731-20.771,31.384-33.542,49.018-30.988,42.79-66.709,86.209-66.709,86.209s-33.976-41.011-64.233-82.79c-20.629-28.485-39.319-57.5-47.714-70.781-53.62-74.32-68.038-146.632-66.719-178.426,1.835-44.221,16-77.609,27.3-94.149C139.8,11.049,213.147,1.283,246.6.825c57.288-.783,122.629,24.157,158.814,76.805C470.019,171.631,390.244,305.976,349.33,363.594Z"/>
  <path id="Shape_338_1" data-name="Shape 338 1" class="cls-2" d="M369.891,216.062h-9.06c9.533,3.471,19.415,11.9,19.415,31.931H367.808a24.4,24.4,0,1,1-45.4-.541H194.367c0.1,1.115.16,2.242,0.16,3.383H181.078a24.4,24.4,0,1,1-47.389,0H120.24a36.839,36.839,0,0,1,5.109-18.759l-0.5-112.35s-1.491-35.72,41.753-35.72H348.8s3.389,18.672-18.437,22.731c0,0,19.226,36.383,15.839,84.092a14.039,14.039,0,0,1,8.562-2.91h15.131a2.218,2.218,0,0,1,2.221,2.217v23.708A2.219,2.219,0,0,1,369.891,216.062Zm-57.968-40.05a2.708,2.708,0,0,0,2.711,2.706h7.592a2.708,2.708,0,0,0,2.711-2.706v-2.706a2.708,2.708,0,0,0-2.711-2.706h-7.592a2.708,2.708,0,0,0-2.711,2.706v2.706ZM239.805,106.2H191c-12.608,0-13.556,9.742-13.556,9.742v51.957c32.534,0,33.076,23.813,33.076,23.813v36.8h29.282V106.2Zm58.562,0H247.938v67.111h32.128c8.405,0,9.083,10.824,9.083,10.824,0,12.448-9.761,13.531-9.761,13.531V228.51h18.979V106.2Zm23.316,7.036H308.67v37.344h26.57C334.562,134.609,321.683,113.231,321.683,113.231Zm20.953,101.4c0.239-.258.484-0.5,0.737-0.734a32.2,32.2,0,0,1,3.619-.169,14.152,14.152,0,0,1-3.461-3.255C343.252,211.854,342.958,213.239,342.636,214.631Z"/>
</svg>
