<svg id="Temperature_ICON" data-name="Temperature ICON" xmlns="http://www.w3.org/2000/svg" width="40" height="40" viewBox="0 0 40 40">
  <defs>
    <style>
      .cls-1 {
        fill: none;
        stroke: #3a3939;
        stroke-width: 1px;
      }

      .cls-1, .cls-3 {
        fill-rule: evenodd;
      }

      .cls-2, .cls-3 {
        fill: #3a3939;
      }
    </style>
  </defs>
  <g id="normal">
    <path id="Shape_330_1" data-name="Shape 330 1" class="cls-1" d="M19,29a6.988,6.988,0,0,1-3,5.74V35H15.592a6.951,6.951,0,0,1-7.184,0H8V34.74A6.991,6.991,0,0,1,8,23.26V5a2,2,0,0,1,2-2h4a2,2,0,0,1,2,2V23.26A6.988,6.988,0,0,1,19,29Z"/>
    <circle class="cls-2" cx="12" cy="29" r="3"/>
    <path class="cls-3" d="M10.974,6.948h2V22.942h-2V6.948Z"/>
    <path id="Rectangle_928_copy_3" data-name="Rectangle 928 copy 3" class="cls-3" d="M20,6H34V8H20V6Zm0,8h8v2H20V14Zm0-4H30v2H20V10Z"/>
  </g>
</svg>
