<svg id="Tour_PlanningICON" data-name="Tour PlanningICON" xmlns="http://www.w3.org/2000/svg" width="40" height="40" viewBox="0 0 40 40">
  <defs>
    <style>
      .cls-1, .cls-2 {
        fill: none;
        stroke: #3a3939;
        fill-rule: evenodd;
      }

      .cls-1 {
        stroke-width: 1px;
      }

      .cls-2 {
        stroke-linecap: round;
        stroke-width: 2px;
      }
    </style>
  </defs>
  <g id="Normal">
    <path id="Locatoe_2371_copy" data-name="Locatoe 2371 copy" class="cls-1" d="M32.315,16.384c-0.3.469-.694,1.071-1.12,1.673C30.16,19.518,28.968,21,28.968,21s-1.134-1.4-2.145-2.826c-0.689-.972-1.313-1.963-1.593-2.416A11.1,11.1,0,0,1,23,9.667a6.508,6.508,0,0,1,.911-3.214A6.062,6.062,0,0,1,28.885,4a6.352,6.352,0,0,1,5.3,2.622C36.344,9.831,33.681,14.417,32.315,16.384ZM29.009,7.045A2.749,2.749,0,1,0,31.7,9.793,2.721,2.721,0,0,0,29.009,7.045Z"/>
    <path class="cls-2" d="M10,35c3.4,0.378,7.345-2.063,11-3.07,6.347-1.75,11.825-.714,12-1.93,0.272-1.892-12.211-4.347-12-7,0.115-1.453,3.957-1.386,8-2"/>
    <path id="Locatoe_2371" data-name="Locatoe 2371" class="cls-1" d="M13.315,31.384c-0.3.469-.694,1.071-1.12,1.673C11.16,34.518,9.968,36,9.968,36s-1.134-1.4-2.145-2.826C7.134,32.2,6.51,31.211,6.23,30.758A11.1,11.1,0,0,1,4,24.667a6.508,6.508,0,0,1,.911-3.214A6.062,6.062,0,0,1,9.885,19a6.352,6.352,0,0,1,5.3,2.622C17.344,24.831,14.681,29.417,13.315,31.384Zm-3.306-9.339A2.749,2.749,0,1,0,12.7,24.794,2.721,2.721,0,0,0,10.009,22.045Z"/>
  </g>
</svg>
