<svg xmlns="http://www.w3.org/2000/svg" width="447" height="282" viewBox="0 0 447 282">
  <defs>
    <style>
      .cls-1 {
        fill: #005383;
        fill-rule: evenodd;
      }
    </style>
  </defs>
  <path id="Shape_339_1" data-name="Shape 339 1" class="cls-1" d="M434.431,213.046v14.821a16.474,16.474,0,0,1-16.479,16.468H407.22a32.948,32.948,0,0,1-65.875,0H136.965a32.948,32.948,0,0,1-65.875,0H50.471a16.474,16.474,0,0,1-16.479-16.468H11.745V13.787a8.237,8.237,0,0,1,8.24-8.234H309.191a8.237,8.237,0,0,1,8.239,8.234v74.1h70.036l47.789,47.756v77.4h-0.824ZM411.36,147.175l-30.486-31.288-39.549-.824v54.344H411.36V147.175Z"/>
</svg>
