<svg xmlns="http://www.w3.org/2000/svg" width="500" height="500" viewBox="0 0 500 500">
  <defs>
    <style>
      .cls-1 {
        fill: #005383;
      }

      .cls-1, .cls-2 {
        fill-rule: evenodd;
      }

      .cls-2 {
        fill: #fff;
      }
    </style>
  </defs>
  <path id="Locatoe_1" data-name="Locatoe 1" class="cls-1" d="M349.33,363.594c-8.939,13.731-20.771,31.384-33.542,49.018-30.988,42.79-66.709,86.209-66.709,86.209s-33.976-41.011-64.233-82.79c-20.629-28.485-39.319-57.5-47.714-70.781-53.62-74.32-68.038-146.632-66.719-178.426,1.835-44.221,16-77.609,27.3-94.149C139.8,11.049,213.147,1.283,246.6.825c57.288-.783,122.629,24.157,158.814,76.805C470.019,171.631,390.244,305.976,349.33,363.594Z"/>
  <path id="bike" class="cls-2" d="M348.966,183.006a46.986,46.986,0,0,0-39.308,2.619l14.563,15.592a37.7,37.7,0,1,1-10.839,8.4L298.2,194.431a47.056,47.056,0,0,0-11.531,44.237l-2.749,2.456H209.638a45.361,45.361,0,1,1,2.249-14.111c0,0.169-.01.336-0.012,0.5h16.132c2.518-8.567-10.579-34.773-10.579-34.773a54.08,54.08,0,0,1,41.306-26.206c18.134-49.388,45.839-44.348,45.839-44.348l-1.007-16.127C268.808,108.079,281.9,92.456,281.9,92.456c91.175-3.528,82.108,77.106,82.108,77.106ZM248.659,147.388c-13.1.5-41.809-17.639-41.809-17.639,31.735-40.82,70.018-15.118,70.018-15.118C268.808,118.662,248.659,147.388,248.659,147.388Zm-42.816,32.757s-20.653-17.134-43.321-14.615-50.876-25.2-38.283-43.34h36.268l68,37.8A49.5,49.5,0,0,0,205.843,180.145Z"/>
</svg>
