<svg xmlns="http://www.w3.org/2000/svg" width="447" height="282" viewBox="0 0 447 282">
  <defs>
    <style>
      .cls-1 {
        fill: #005383;
        fill-rule: evenodd;
      }
    </style>
  </defs>
  <path id="Shape_337_1" data-name="Shape 337 1" class="cls-1" d="M378.889,142.2a73.99,73.99,0,0,0-61.915,4.126l22.938,24.568a59.389,59.389,0,1,1-17.073,13.24L298.925,160.2a74.154,74.154,0,0,0-18.163,69.7l-4.33,3.87H159.427a71.477,71.477,0,1,1,3.542-22.234c0,0.267-.017.529-0.02,0.794H188.36c3.967-13.5-16.663-54.789-16.663-54.789,23.8-39.7,65.063-41.291,65.063-41.291,28.564-77.817,72.2-69.877,72.2-69.877l-1.587-25.41C252.629,24.139,273.259-.477,273.259-0.477c143.614-5.558,129.332,121.49,129.332,121.49Zm-158-56.121c-20.63.794-65.856-27.792-65.856-27.792C205.022-6.035,265.324,34.461,265.324,34.461,252.629,40.814,220.891,86.075,220.891,86.075Zm-67.443,51.613s-32.531-27-68.236-23.027-80.138-39.7-60.3-68.289H82.038l107.115,59.554S167.73,113.867,153.448,137.688Z"/>
</svg>
