<?xml version="1.0" standalone="no"?>
<!DOCTYPE svg PUBLIC "-//W3C//DTD SVG 20010904//EN"
 "http://www.w3.org/TR/2001/REC-SVG-20010904/DTD/svg10.dtd">
<svg version="1.0" xmlns="http://www.w3.org/2000/svg"
 width="1200.000000pt" height="1006.000000pt" viewBox="0 0 1200.000000 1006.000000"
 preserveAspectRatio="xMidYMid meet">
<metadata>
Created by potrace 1.16, written by Peter Selinger 2001-2019
</metadata>
<g transform="translate(0.000000,1006.000000) scale(0.100000,-0.100000)"
fill="#000000" stroke="none">
<path d="M3183 9854 c-393 -53 -702 -283 -892 -663 -23 -45 -263 -639 -532
-1320 -270 -680 -496 -1246 -502 -1259 -9 -17 -35 -31 -102 -53 -504 -167
-863 -546 -950 -1001 -13 -70 -15 -301 -15 -1764 l0 -1684 480 0 479 0 3 -657
3 -658 27 -80 c106 -313 389 -507 763 -522 282 -12 515 74 697 257 74 75 93
101 136 191 28 57 58 133 67 169 19 75 31 347 41 923 l6 367 3108 0 3108 0 6
-367 c10 -576 22 -848 41 -923 9 -36 39 -112 67 -169 43 -90 62 -116 136 -191
184 -184 416 -269 702 -257 330 14 594 170 715 422 75 157 75 152 75 864 l0
631 480 0 480 0 0 1679 c0 1430 -2 1691 -15 1762 -43 246 -168 474 -364 662
-156 149 -366 273 -586 346 -67 22 -93 36 -102 53 -6 13 -232 579 -502 1260
-269 680 -506 1269 -527 1310 -197 393 -503 620 -907 673 -104 13 -437 15
-2820 14 -2245 -1 -2719 -3 -2804 -15z m3002 -880 c1917 -5 2365 -8 2429 -19
159 -28 261 -105 355 -270 31 -53 155 -378 407 -1063 200 -543 364 -988 364
-990 0 -4 -7463 9 -7468 13 -1 1 155 425 349 941 193 517 360 966 371 999 47
143 142 268 245 322 117 63 244 84 463 77 74 -2 1193 -6 2485 -10z m-3920
-3364 c292 -93 502 -321 566 -615 7 -33 13 -112 12 -175 0 -94 -6 -131 -27
-205 -177 -591 -882 -790 -1322 -372 -171 162 -256 360 -255 596 1 382 272
711 652 791 80 17 295 5 374 -20z m7920 11 c253 -61 465 -243 561 -479 46
-115 58 -180 58 -312 -1 -193 -50 -340 -166 -494 -98 -130 -275 -249 -438
-292 -91 -25 -301 -25 -390 0 -285 78 -500 290 -582 573 -19 65 -23 101 -23
223 1 137 2 150 33 240 43 124 98 215 186 307 115 122 238 194 394 233 105 26
262 26 367 1z"/>
<path d="M7805 8844 c-191 -46 -356 -193 -446 -394 -23 -52 -24 -66 -24 -235
0 -174 1 -182 28 -244 78 -184 198 -302 377 -370 92 -36 192 -46 319 -32 81 9
107 17 190 58 133 65 239 170 302 297 l44 89 0 196 0 196 -36 75 c-119 247
-331 381 -598 379 -53 0 -123 -7 -156 -15z"/>
<path d="M7520 7439 c-333 -6 -384 -9 -453 -28 -218 -58 -417 -225 -518 -436
-40 -83 -69 -179 -69 -227 l0 -28 1485 0 c1386 0 1485 1 1485 17 0 35 -43 171
-76 240 -97 203 -322 387 -535 438 -100 23 -746 35 -1319 24z"/>
</g>
</svg>
