<svg xmlns="http://www.w3.org/2000/svg" xmlns:xlink="http://www.w3.org/1999/xlink" width="32" height="32" viewBox="0 0 32 32">
  <defs>
    <style>
      .cls-1 {
        fill: #088cff;
        fill-rule: evenodd;
        filter: url(#filter);
      }
    </style>
    <filter id="filter" x="1" y="1" width="30" height="30" filterUnits="userSpaceOnUse">
      <feFlood result="flood" flood-color="#005383"/>
      <feComposite result="composite" operator="in" in2="SourceGraphic"/>
      <feBlend result="blend" in2="SourceGraphic"/>
    </filter>
  </defs>
  <path id="Shape_334_1" data-name="Shape 334 1" class="cls-1" d="M1,31V29.966H31V31H1ZM21.69,10.181V8.241a1,1,0,0,1,1.034,1.034A0.867,0.867,0,0,1,21.69,10.181Zm3.027,16.164V19.621a5.281,5.281,0,0,0-3.879-4.267H18.509V14.448a5.384,5.384,0,0,0,2.716-3.1H22.13c1.573-.237,1.552-2.069,1.552-2.069a2.269,2.269,0,0,0-2.2-2.2V4.1A5.636,5.636,0,0,1,27.3,9.147V28.931H25.234A8.056,8.056,0,0,0,24.716,26.345ZM16,13.931a4.784,4.784,0,0,1-4.784-4.784V7.724c4.569,0.6,6.336-1.034,6.336-1.034,0.6,0.905,3.233,1.034,3.233,1.034V9.147A4.784,4.784,0,0,1,16,13.931Zm1.422-8.793C14.19,7.9,11.216,6.56,11.216,6.56V5.784a4.785,4.785,0,0,1,9.569,0V6.69A4.971,4.971,0,0,1,17.422,5.138Zm6.207,14.871v4.138c-0.744-2.177-4.009-3.233-4.009-3.233l3.1-3.1C23.446,18,23.629,20.009,23.629,20.009Zm-1.81-2.845-3.362,3.362s-0.216-.539-1.681-0.517l3.491-3.491S21.894,16.69,21.819,17.164Zm-2.974-.647-2.715,2.716,2.2-2.716h0.517Zm-3.621,3.491s-3.642.108-6.983,4.138V19.362A3.1,3.1,0,0,1,11.6,16.647h2.069L16,19.233Zm2.328-5.3-0.129,1.035L16,17.81l-1.552-2.069V14.707A4.581,4.581,0,0,0,17.552,14.707ZM7.853,28.8s0.636-7.5,8.276-7.5,8.147,7.629,8.147,7.629H23.241s-0.334-6.595-7.112-6.595S8.759,28.8,8.759,28.8H7.853Zm2.716-2.328,2.586,2.457H9.922A3.512,3.512,0,0,1,10.569,26.474Zm2.586-2.328a3.014,3.014,0,0,1,2.328-.776l-1.552,1.552Zm5.69-.129-2.974,2.974-1.164-1.164L17.164,23.5C18.619,23.5,18.845,24.017,18.845,24.017ZM22,28.931H18.769l2.586-2.457A3.512,3.512,0,0,1,22,28.931Zm-5.744,0H14.578l-3.362-3.362,0.776-.776,3.971,3.847,3.971-3.847,0.776,0.776-3.362,3.362H16.259ZM9.3,9.276a1,1,0,0,1,1.034-1.034v1.94A0.868,0.868,0,0,1,9.3,9.276Zm4.116,5.172v0.905H11.086a5.281,5.281,0,0,0-3.879,4.267v6.724a8.057,8.057,0,0,0-.517,2.586H4.621V9.147A5.636,5.636,0,0,1,10.44,4.1V7.078a2.269,2.269,0,0,0-2.2,2.2S8.22,11.108,9.793,11.345H10.7A5.384,5.384,0,0,0,13.414,14.448Z"/>
</svg>
