<svg xmlns="http://www.w3.org/2000/svg" width="32" height="32" viewBox="0 0 32 32">
  <defs>
    <style>
      .cls-1 {
        fill: #005383;
        fill-rule: evenodd;
      }
    </style>
  </defs>
  <path id="Shape_337_1" data-name="Shape 337 1" class="cls-1" d="M22.4,24.289l2.755,1.585-0.54.9-3.241-1.955V21.382H22.4v2.906Zm5.24,4.175A6.963,6.963,0,0,1,22.276,31a7.216,7.216,0,0,1-5.17-2.484,6.328,6.328,0,0,1-1.188-2.272h1.458a5.37,5.37,0,0,0,9.615.74,4.9,4.9,0,0,0,.648-2.219,5.352,5.352,0,0,0-2.222-4.521,5.24,5.24,0,0,0-3.125-1.028,5.653,5.653,0,0,0-4.753,3.065l1.891,1.85H15V19.691l1.62,1.533a6.977,6.977,0,0,1,3.243-2.772A6.535,6.535,0,0,1,22.276,18a6.834,6.834,0,0,1,4.877,2.008A6.46,6.46,0,0,1,28.99,24.87,6.351,6.351,0,0,1,27.64,28.463ZM18.453,17a4.746,4.746,0,0,0-3.548,7.92C13.613,26.6,12.449,28,12.449,28s-1.8-2.141-3.4-4.322c-1.09-1.487-2.078-3-2.522-3.7A16.6,16.6,0,0,1,3,10.667,9.712,9.712,0,0,1,4.447,5.751C6.672,2.534,10.549,2.024,12.318,2a10.184,10.184,0,0,1,8.4,4.01C23.1,9.434,21.762,13.881,20,17.28A4.719,4.719,0,0,0,18.453,17ZM12.514,6.657a4.2,4.2,0,1,0,4.263,4.2A4.234,4.234,0,0,0,12.514,6.657Z"/>
</svg>
