<svg xmlns="http://www.w3.org/2000/svg" width="447" height="282" viewBox="0 0 447 282">
  <defs>
    <style>
      .cls-1 {
        fill: #005383;
        fill-rule: evenodd;
      }
    </style>
  </defs>
  <path id="Ellipse_5_copy" data-name="Ellipse 5 copy" class="cls-1" d="M428.04,175.688V154.726H447v20.962H428.04Zm-10.977-21.961v21.961a9.981,9.981,0,0,0,9.979,9.983H446V226.6c0,20.568-13.97,18.967-13.97,18.967H412.5a39.819,39.819,0,0,0-78.989,1h-35.2V127.773H446v15.972h-18.96A9.981,9.981,0,0,0,417.063,153.727ZM373.155,69.876a4.99,4.99,0,0,1,4.99-4.991h13.971l47.9,52.906h-66.86V69.876Zm-24.947-4.991h14.968v52.906H348.208V64.885Zm-48.9,0h39.916v52.906H299.311V64.885ZM47.759,211.292A39.838,39.838,0,0,0,8.2,246.563H0V200.644H289.332v45.919H87.323A39.838,39.838,0,0,0,47.759,211.292ZM0,165.706H289.332v24.956H0V165.706ZM0,24.956A24.952,24.952,0,0,1,24.948,0h237.5A24.952,24.952,0,0,1,287.4,24.956V155.724H0V24.956Zm47.765,195.31a30.867,30.867,0,1,1-30.857,30.867A30.862,30.862,0,0,1,47.765,220.266Zm326.311,0a30.867,30.867,0,1,1-30.857,30.867A30.862,30.862,0,0,1,374.075,220.266Zm38.561,26.3c-0.014-.122-0.035-0.242-0.05-0.364l0.866,0.364h-0.816Zm-123.3,0H172.323a39.825,39.825,0,0,0-79.127,0H0m289.332,0H87.323m202.009,0H264.323a39.825,39.825,0,0,0-79.127,0H0M133,220a31,31,0,1,1-31,31A31,31,0,0,1,133,220Zm92,0a31,31,0,1,1-31,31A31,31,0,0,1,225,220Z"/>
</svg>
