<svg id="Maintenance_ICON" data-name="Maintenance ICON" xmlns="http://www.w3.org/2000/svg" xmlns:xlink="http://www.w3.org/1999/xlink" width="40" height="40" viewBox="0 0 40 40">
  <defs>
    <style>
      .cls-1 {
        filter: url(#filter);
      }

      .cls-2 {
        fill: none;
        stroke: #3a3939;
        stroke-width: 1px;
        fill-rule: evenodd;
      }
    </style>
    <filter id="filter" filterUnits="userSpaceOnUse">
      <feFlood result="flood" flood-color="#fff"/>
      <feComposite result="composite" operator="in" in2="SourceGraphic"/>
      <feBlend result="blend" in2="SourceGraphic"/>
    </filter>
  </defs>
  <g id="_hover" class="cls-1">
    <path class="cls-2" d="M13.783,24.133l10.2-10.2a6.006,6.006,0,0,1,0-6.8,6.067,6.067,0,0,1,7.65-1.7c-2.389.184-4.071,1.731-4.25,3.4a3.531,3.531,0,0,0,.85,2.55,3.764,3.764,0,0,0,3.162.674,3.86,3.86,0,0,0,2.788-3.224,5.368,5.368,0,0,1-1.7,6.8,5.134,5.134,0,0,1-5.1,0l-11.05,11.05a6.178,6.178,0,0,1-.85,5.95c-1.837,2.219-5.513,2.777-8.5.85A5.814,5.814,0,0,1,13.783,24.133Zm-2.975,2.231a2.444,2.444,0,1,1-2.444,2.444A2.444,2.444,0,0,1,10.808,26.365Z"/>
    <path class="cls-2" d="M8.683,13.083l-3.4-3.4-1.7-1.7,3.4-3.4,5.95,4.25-1.7,1.7,12.75,13.6,2.55-2.55,8.5,8.5s0.46,7.43-5.95,4.25l-6.8-6.8-0.85-.85,1.7-1.7-12.75-13.6Z"/>
  </g>
</svg>
