<svg xmlns="http://www.w3.org/2000/svg" width="500" height="500" viewBox="0 0 500 500">
  <defs>
    <style>
      .cls-1 {
        fill: #005383;
      }

      .cls-1, .cls-2 {
        fill-rule: evenodd;
      }

      .cls-2 {
        fill: #fff;
      }
    </style>
  </defs>
  <path id="Locatoe_1" data-name="Locatoe 1" class="cls-1" d="M349.33,363.594c-8.939,13.731-20.771,31.384-33.542,49.018-30.988,42.79-66.709,86.209-66.709,86.209s-33.976-41.011-64.233-82.79c-20.629-28.485-39.319-57.5-47.714-70.781-53.62-74.32-68.038-146.632-66.719-178.426,1.835-44.221,16-77.609,27.3-94.149C139.8,11.049,213.147,1.283,246.6.825c57.288-.783,122.629,24.157,158.814,76.805C470.019,171.631,390.244,305.976,349.33,363.594Z"/>
  <path id="Scooter" class="cls-2" d="M380.148,206.051l-21.008,12.62A31.085,31.085,0,1,1,308.267,249H207.9a31.086,31.086,0,0,1-29.085,24.007q-0.581.029-1.17,0.029t-1.17-.029A31.086,31.086,0,0,1,147.386,249h-27.2s-2.589-59.952,30.133-75.164V162.589a20.441,20.441,0,0,1,20.429-20.453h63.841c11.282,0,19.918,9.157,19.918,20.453v11.249s1.327,4.985-1.532,6.136-28.381,13.251-9.7,31.7c0,0,48.315,21.043,52.516-19.11-0.272-.2-0.422-0.321-0.422-0.321,3.052-19.8-.584-52.955-2.02-64.446l-26.785,6.789a2.554,2.554,0,0,1-3.1-1.851l-0.878-3.47a2.557,2.557,0,0,1,1.849-3.106l28.773-7.292a20.639,20.639,0,0,1-.381-3.918v-2.389A20.528,20.528,0,0,1,313.34,92.023H334.7v43.468H321.814c17.541,22.141,17.119,48.379,16.983,51.78C351.981,187.48,367.083,191.812,380.148,206.051Z"/>
</svg>
