<svg xmlns="http://www.w3.org/2000/svg" width="447" height="282" viewBox="0 0 447 282">
  <defs>
    <style>
      .cls-1 {
        fill: #005383;
      }

      .cls-1, .cls-2 {
        fill-rule: evenodd;
      }

      .cls-2 {
        fill: #c1c1c1;
      }
    </style>
  </defs>
  <path id="Shape_336_1" data-name="Shape 336 1" class="cls-1" d="M423.991,177.754l-32.4,19.451a47.925,47.925,0,1,1-78.458,46.748h-154.8a47.935,47.935,0,0,1-44.857,37q-0.9.046-1.8,0.046t-1.8-.046a47.934,47.934,0,0,1-44.857-37H23.068S19.075,151.55,69.54,128.1V110.766a31.515,31.515,0,0,1,31.507-31.523h98.459c17.4,0,30.719,14.114,30.719,31.523V128.1s2.046,7.684-2.363,9.457-43.77,20.425-14.966,48.862c0,0,74.514,32.434,80.993-29.454-0.42-.314-0.651-0.493-0.651-0.493,4.707-30.515-.9-81.619-3.115-99.33l-41.31,10.462a3.938,3.938,0,0,1-4.784-2.853l-1.353-5.348a3.941,3.941,0,0,1,2.851-4.787L289.9,43.382a31.7,31.7,0,0,1-.589-6.039V33.661A31.649,31.649,0,0,1,320.955,2H353.9V69H334.024c27.053,34.125,26.4,74.566,26.193,79.807C380.55,149.131,403.842,155.808,423.991,177.754Z"/>
  <path class="cls-2" d="M347.3,11.631c1.99,0,3.6,10.391,3.6,23.21s-1.613,23.21-3.6,23.21-3.6-10.391-3.6-23.21S345.312,11.631,347.3,11.631Z"/>
</svg>
