<svg id="Settings_ICON" data-name="Settings ICON" xmlns="http://www.w3.org/2000/svg" xmlns:xlink="http://www.w3.org/1999/xlink" width="40" height="40" viewBox="0 0 40 40">
  <defs>
    <style>
      .cls-1 {
        fill: none;
        stroke: #3a3939;
        stroke-width: 1px;
        fill-rule: evenodd;
        filter: url(#filter);
      }
    </style>
    <filter id="filter" x="4" y="4" width="31" height="31" filterUnits="userSpaceOnUse">
      <feFlood result="flood" flood-color="#fff"/>
      <feComposite result="composite" operator="in" in2="SourceGraphic"/>
      <feBlend result="blend" in2="SourceGraphic"/>
    </filter>
  </defs>
  <g style="fill: none; filter: url(#filter)">
    <path id="Shape_320_934_copy" data-name="Shape 320 934 copy" class="cls-1" d="M35,16.237v5.711H30.652a11.338,11.338,0,0,1-1.167,3.092h0l2.994,2.994-4.038,4.038-2.895-2.895h0a11.347,11.347,0,0,1-2.783,1.265h0V35h-5.71V30.652h0a11.338,11.338,0,0,1-3.6-1.475h0l-2.895,2.895L6.521,28.033l2.994-2.994h0a11.337,11.337,0,0,1-1.167-3.092H4V16.237H8.558a11.344,11.344,0,0,1,1.265-2.783h0l-3.3-3.3,4.038-4.038,3.4,3.4h0a11.336,11.336,0,0,1,3.092-1.167h0V4h5.711V8.558h0a11.344,11.344,0,0,1,2.276.957h0l3.4-3.4,4.038,4.038-3.3,3.3h0a11.344,11.344,0,0,1,1.265,2.783H35ZM19.5,12.362A7.138,7.138,0,1,0,26.638,19.5,7.138,7.138,0,0,0,19.5,12.362Z" style="stroke: inherit; filter: none; fill: inherit"/>
  </g>
  <use xlink:href="#Shape_320_934_copy" style="stroke: #3a3939; filter: none; fill: none"/>
</svg>
