<svg id="Settings_ICON" data-name="Settings ICON" xmlns="http://www.w3.org/2000/svg" width="40" height="40" viewBox="0 0 40 40">
  <defs>
    <style>
      .cls-1 {
        fill: none;
        stroke: #3a3939;
        stroke-width: 1px;
        fill-rule: evenodd;
      }
    </style>
  </defs>
  <path id="normal" class="cls-1" d="M35,16.237v5.711H30.652a11.338,11.338,0,0,1-1.167,3.092h0l2.994,2.994-4.038,4.038-2.895-2.895h0a11.347,11.347,0,0,1-2.783,1.265h0V35h-5.71V30.652h0a11.338,11.338,0,0,1-3.6-1.475h0l-2.895,2.895L6.521,28.033l2.994-2.994h0a11.337,11.337,0,0,1-1.167-3.092H4V16.237H8.558a11.344,11.344,0,0,1,1.265-2.783h0l-3.3-3.3,4.038-4.038,3.4,3.4h0a11.336,11.336,0,0,1,3.092-1.167h0V4h5.711V8.558h0a11.344,11.344,0,0,1,2.276.957h0l3.4-3.4,4.038,4.038-3.3,3.3h0a11.344,11.344,0,0,1,1.265,2.783H35ZM19.5,12.362A7.138,7.138,0,1,0,26.638,19.5,7.138,7.138,0,0,0,19.5,12.362Z"/>
</svg>
