<svg xmlns="http://www.w3.org/2000/svg" width="37" height="41.406" viewBox="0 0 37 41.406">
  <defs>
    <style>
      .cls-1 {
        fill: none;
        stroke: #005383;
        stroke-linecap: round;
        stroke-width: 2.5px;
      }

      .cls-1, .cls-2 {
        fill-rule: evenodd;
      }

      .cls-2 {
        fill: #005383;
      }
    </style>
  </defs>
  <path class="cls-1" d="M186,457c-3.993,1.337-6.87,2.981-7,5-0.23,3.554,8.276,5.614,8,9-0.221,2.709-5.934,4.625-10,5-4.173.385-7.307,0.267-11-2" transform="translate(-157 -436)"/>
  <path id="Locatoe_1" data-name="Locatoe 1" class="cls-2" d="M190.42,452.026c-0.4.607-.925,1.387-1.494,2.166-1.379,1.89-2.969,3.808-2.969,3.808s-1.513-1.812-2.86-3.657c-0.918-1.259-1.75-2.541-2.124-3.127a14.107,14.107,0,0,1-2.97-7.883,8.249,8.249,0,0,1,1.216-4.159c1.873-2.722,5.138-3.154,6.627-3.174a8.559,8.559,0,0,1,7.07,3.393C195.792,443.546,192.241,449.481,190.42,452.026Zm-4.408-12.086a3.558,3.558,0,1,0,3.59,3.557A3.574,3.574,0,0,0,186.012,439.94Z" transform="translate(-157 -436)"/>
  <path id="Locatoe_1_copy" data-name="Locatoe 1 copy" class="cls-2" d="M169.42,469.026c-0.4.607-.925,1.387-1.494,2.166-1.379,1.89-2.969,3.808-2.969,3.808s-1.513-1.812-2.86-3.657c-0.918-1.259-1.75-2.541-2.124-3.127a14.107,14.107,0,0,1-2.97-7.883,8.249,8.249,0,0,1,1.216-4.159c1.873-2.722,5.138-3.154,6.627-3.174a8.559,8.559,0,0,1,7.07,3.393C174.792,460.546,171.241,466.481,169.42,469.026Zm-4.408-12.086a3.558,3.558,0,1,0,3.59,3.558A3.574,3.574,0,0,0,165.012,456.94Z" transform="translate(-157 -436)"/>
</svg>
