<svg xmlns="http://www.w3.org/2000/svg" width="500" height="500" viewBox="0 0 500 500">
  <defs>
    <style>
      .cls-1 {
        fill: #005383;
      }

      .cls-1, .cls-2 {
        fill-rule: evenodd;
      }

      .cls-2 {
        fill: #fff;
      }
    </style>
  </defs>
  <path id="Locatoe_1" data-name="Locatoe 1" class="cls-1" d="M349.33,363.594c-8.939,13.731-20.771,31.384-33.542,49.018-30.988,42.79-66.709,86.209-66.709,86.209s-33.976-41.011-64.233-82.79c-20.629-28.485-39.319-57.5-47.714-70.781-53.62-74.32-68.038-146.632-66.719-178.426,1.835-44.221,16-77.609,27.3-94.149C139.8,11.049,213.147,1.283,246.6.825c57.288-.783,122.629,24.157,158.814,76.805C470.019,171.631,390.244,305.976,349.33,363.594Z"/>
  <path id="Shape_339_1" data-name="Shape 339 1" class="cls-2" d="M379.311,226.738v9.082a10.1,10.1,0,0,1-10.117,10.092h-6.589a20.228,20.228,0,0,1-40.441,0H196.69a20.229,20.229,0,0,1-40.442,0H143.589a10.1,10.1,0,0,1-10.117-10.092H119.815V104.636a5.052,5.052,0,0,1,5.058-5.045h177.55a5.052,5.052,0,0,1,5.059,5.045v45.41h43l29.339,29.264v47.428h-0.506Zm-14.164-40.364L346.431,167.2l-24.28-.5V200h43V186.374Z"/>
</svg>
