<svg xmlns="http://www.w3.org/2000/svg" width="32" height="32" viewBox="0 0 32 32">
  <defs>
    <style>
      .cls-1, .cls-2 {
        fill: #005383;
      }

      .cls-2 {
        fill-rule: evenodd;
      }
    </style>
  </defs>
  <circle id="Ellipse_1_copy" data-name="Ellipse 1 copy" class="cls-1" cx="26" cy="24" r="3"/>
  <circle id="Ellipse_1_copy_2" data-name="Ellipse 1 copy 2" class="cls-1" cx="6" cy="24" r="3"/>
  <rect class="cls-1" y="5" width="20" height="12"/>
  <path class="cls-2" d="M0,18H20v5H0V18Zm10,5H2a3.9,3.9,0,0,1,4-3A3.9,3.9,0,0,1,10,23Z"/>
  <path id="Shape_2_copy" data-name="Shape 2 copy" class="cls-2" d="M21,15h6a5,5,0,0,1,5,5v3H21V15Zm9,8H22a3.9,3.9,0,0,1,4-3A3.9,3.9,0,0,1,30,23Z"/>
  <path class="cls-1" d="M21,9h4a3,3,0,0,1,3,3v2a0,0,0,0,1,0,0H21a0,0,0,0,1,0,0V9A0,0,0,0,1,21,9Z"/>
</svg>
